<svg width="20" height="20" viewBox="0 0 20 20" fill="none" xmlns="http://www.w3.org/2000/svg">
<path d="M12 3H14V4H16V6H17V8H18V12H17V14H16V16H14V17H12V18H8V17H6V16H4V14H3V12H2V8H3V6H4V4H6V3H8V2H12V3Z" fill="#FFBB00"/>
<path d="M12 3H14V4H16V6H17V8H18V12H17V14H16V16H14V17H12V18H8V17H6V16H4V14H3V12H2V8H3V6H4V4H6V3H8V2H12V3Z" fill="#FFBB00"/>
<rect x="8" y="2" width="4" height="1" fill="#FFDC3F"/>
<rect x="8" y="2" width="4" height="1" fill="#FFDC3F"/>
<rect x="6" y="3" width="2" height="1" fill="#FFDC3F"/>
<rect x="4" y="4" width="2" height="1" fill="#FFDC3F"/>
<rect x="4" y="5" width="1" height="1" fill="#FFDC3F"/>
<rect x="3" y="6" width="1" height="1" fill="#FFDC3F"/>
<rect x="3" y="7" width="1" height="1" fill="#FFDC3F"/>
<rect x="2" y="8" width="1" height="4" fill="#FFDC3F"/>
<rect x="7.5" y="7.5" width="5" height="5" fill="#FFBB3D"/>
<rect x="8.5" y="6.5" width="3" height="1" fill="#FF7A1B"/>
<rect x="7.5" y="7.5" width="1" height="1" fill="#FF7A1B"/>
<rect x="7.5" y="11.5" width="1" height="1" fill="#FF7A1B"/>
<rect x="6.5" y="8.5" width="1" height="3" fill="#FF7A1B"/>
<rect x="12.5" y="8.5" width="1" height="3" fill="#FFDC3F"/>
<rect x="11.5" y="11.5" width="1" height="1" fill="#FFDC3F"/>
<rect x="11.5" y="7.5" width="1" height="1" fill="#FFDC3F"/>
<rect x="8.5" y="12.5" width="3" height="1" fill="#FFDC3F"/>
</svg>
