<svg width="20" height="20" viewBox="0 0 20 20" fill="none" xmlns="http://www.w3.org/2000/svg">
<rect x="5" y="2" width="10" height="16" fill="#FF2E44"/>
<rect x="15" y="3" width="2" height="14" fill="#FF2E44"/>
<rect x="3" y="3" width="2" height="14" fill="#FF2E44"/>
<rect x="12" y="8" width="2" height="1" fill="#FFAFB7"/>
<rect x="6" y="8" width="2" height="1" fill="#FFAFB7"/>
<rect x="14" y="7" width="1" height="1" fill="#FFAFB7"/>
<rect x="5" y="7" width="1" height="1" fill="#FFAFB7"/>
<rect x="4" y="6" width="1" height="1" fill="#FFAFB7"/>
<rect x="3" y="5" width="1" height="1" fill="#FFAFB7"/>
<rect x="15" y="6" width="1" height="1" fill="#FFAFB7"/>
<rect x="16" y="5" width="1" height="1" fill="#FFAFB7"/>
<rect x="7.5" y="6" width="5" height="5" fill="#FFE44C"/>
<rect x="7.5" y="6" width="1" height="1" fill="#FF2E44"/>
<rect x="11.5" y="6" width="1" height="1" fill="#FF2E44"/>
<rect x="11.5" y="10" width="1" height="1" fill="#FF2E44"/>
<rect x="7.5" y="10" width="1" height="1" fill="#FF2E44"/>
</svg>
