<svg width="20" height="20" viewBox="0 0 20 20" fill="none" xmlns="http://www.w3.org/2000/svg">
<path d="M13.846 20H6.15359V18.4619H13.846V20ZM18.4612 16.9229H16.9231V18.4609H3.07742V16.9229H1.53836V13.8467H18.4612V16.9229ZM20.0003 13.8457H4.61551V12.3076H9.23074V10.7695H13.846V9.23145H9.23074V7.69336H20.0003V13.8457ZM18.4612 6.15332H20.0003V7.69238H4.61551V6.1543H1.53836V3.07715H18.4612V6.15332ZM13.846 1.53809H16.9231V3.07617H3.07742V1.53809H6.15359V0H13.846V1.53809Z" fill="#FFDF39"/>
<path d="M12.3076 4.61597H13.0771V6.15503H12.3076V6.92456H10.7695V6.15503H9.99997V4.61597H10.7695V3.84741H12.3076V4.61597Z" fill="black"/>
</svg>
