<svg width="48" height="48" viewBox="0 0 48 48" fill="none" xmlns="http://www.w3.org/2000/svg">
<rect x="12" y="4.79932" width="24" height="38.4" fill="#8D64FF"/>
<rect x="36" y="7.20068" width="4.8" height="33.6" fill="#8D64FF"/>
<rect x="7.20007" y="7.20068" width="4.8" height="33.6" fill="#8D64FF"/>
<rect x="28.7999" y="19.2007" width="4.8" height="2.4" fill="#A686FF"/>
<rect x="14.4" y="19.2007" width="4.8" height="2.4" fill="#A686FF"/>
<rect x="33.6" y="16.7993" width="2.4" height="2.4" fill="#A686FF"/>
<rect x="12" y="16.7993" width="2.4" height="2.4" fill="#A686FF"/>
<rect x="9.59998" y="14.3997" width="2.4" height="2.4" fill="#A686FF"/>
<rect x="7.20007" y="12" width="2.4" height="2.4" fill="#A686FF"/>
<rect x="36" y="14.3997" width="2.4" height="2.4" fill="#A686FF"/>
<rect x="38.4" y="12" width="2.4" height="2.4" fill="#A686FF"/>
<rect x="18" y="14.3989" width="12" height="12" fill="#AE91FF"/>
<rect x="18" y="14.3989" width="2.4" height="2.4" fill="#8D64FF"/>
<rect x="27.6" y="14.3989" width="2.4" height="2.4" fill="#8D64FF"/>
<rect x="27.6" y="23.9993" width="2.4" height="2.4" fill="#8D64FF"/>
<rect x="18" y="23.9993" width="2.4" height="2.4" fill="#8D64FF"/>
</svg>
